<svg xmlns="http://www.w3.org/2000/svg" width="27.972" height="30.303" viewBox="0 0 27.972 30.303">
  <g id="Group_21" data-name="Group 21" transform="translate(0 1.825)">
    <g id="Ellipse_7" data-name="Ellipse 7" transform="translate(0 7.426)" fill="none" stroke="#636e72" stroke-width="3">
      <circle cx="10.526" cy="10.526" r="10.526" stroke="none"/>
      <circle cx="10.526" cy="10.526" r="9.026" fill="none"/>
    </g>
    <line id="Line_3" data-name="Line 3" y1="8.553" x2="7.237" transform="translate(16.118 2.492)" fill="none" stroke="#636e72" stroke-width="3"/>
    <g id="Path_1" data-name="Path 1" transform="translate(21.91 -1) rotate(45)" fill="#636e72">
      <path d="M 7.161591529846191 6.994733333587646 L 0.245051696896553 6.994733333587646 C 0.04350169375538826 6.994733333587646 -0.07381830364465714 6.840453147888184 -0.1258182972669601 6.748483180999756 C -0.2204083055257797 6.581173419952393 -0.2752183079719543 6.293282985687256 -0.1183483079075813 6.032573223114014 L 3.339921712875366 0.2850531935691833 C 3.429281711578369 0.1365332007408142 3.561741590499878 0.05135320127010345 3.703321695327759 0.05135320127010345 C 3.84490180015564 0.05135320127010345 3.977361679077148 0.1365332007408142 4.066731929779053 0.2850632071495056 L 7.524991512298584 6.032573223114014 C 7.681861877441406 6.293282985687256 7.62706184387207 6.58116340637207 7.532471656799316 6.748473167419434 C 7.480471611022949 6.840443134307861 7.363151550292969 6.994733333587646 7.161591529846191 6.994733333587646 Z" stroke="none"/>
      <path d="M 3.703322649002075 0.6509041786193848 L 0.3100724220275879 6.290363311767578 C 0.2645120620727539 6.366077899932861 0.2837176322937012 6.45097827911377 0.3051614761352539 6.494733333587646 L 7.101479530334473 6.494733333587646 C 7.122921466827393 6.45097827911377 7.142133235931396 6.366077899932861 7.096572875976563 6.290363311767578 L 3.703322649002075 0.6509041786193848 M 3.703322649002075 -0.4486470222473145 C 4.003782749176025 -0.4486470222473145 4.304242610931396 -0.2900066375732422 4.495152473449707 0.02727317810058594 L 7.953422546386719 5.774793148040771 C 8.391742706298828 6.503273010253906 7.935302734375 7.494733333587646 7.161592483520508 7.494733333587646 L 0.2450528144836426 7.494733333587646 C -0.5286574363708496 7.494733333587646 -0.9851069450378418 6.503273010253906 -0.5467772483825684 5.774793148040771 L 2.911492824554443 0.02727317810058594 C 3.102402687072754 -0.2900066375732422 3.402862548828125 -0.4486470222473145 3.703322649002075 -0.4486470222473145 Z" stroke="none" fill="#636e72"/>
    </g>
  </g>
</svg>
