<svg xmlns="http://www.w3.org/2000/svg" xmlns:xlink="http://www.w3.org/1999/xlink" width="48" height="51" viewBox="0 0 48 51">
  <defs>
    <filter id="Rectangle_32" x="0" y="12" width="48" height="39" filterUnits="userSpaceOnUse">
      <feOffset dy="3" input="SourceAlpha"/>
      <feGaussianBlur stdDeviation="3" result="blur"/>
      <feFlood flood-color="#fff" flood-opacity="0.161"/>
      <feComposite operator="in" in2="blur"/>
      <feComposite in="SourceGraphic"/>
    </filter>
    <filter id="Rectangle_33" x="0" y="3" width="48" height="28" filterUnits="userSpaceOnUse">
      <feOffset dy="3" input="SourceAlpha"/>
      <feGaussianBlur stdDeviation="3" result="blur-2"/>
      <feFlood flood-color="#ff7675" flood-opacity="0.161"/>
      <feComposite operator="in" in2="blur-2"/>
      <feComposite in="SourceGraphic"/>
    </filter>
    <filter id="Rectangle_34" x="5" y="0" width="23" height="27" filterUnits="userSpaceOnUse">
      <feOffset dy="3" input="SourceAlpha"/>
      <feGaussianBlur stdDeviation="3" result="blur-3"/>
      <feFlood flood-opacity="0.161"/>
      <feComposite operator="in" in2="blur-3"/>
      <feComposite in="SourceGraphic"/>
    </filter>
    <filter id="Rectangle_35" x="20" y="0" width="23" height="27" filterUnits="userSpaceOnUse">
      <feOffset dy="3" input="SourceAlpha"/>
      <feGaussianBlur stdDeviation="3" result="blur-4"/>
      <feFlood flood-opacity="0.161"/>
      <feComposite operator="in" in2="blur-4"/>
      <feComposite in="SourceGraphic"/>
    </filter>
  </defs>
  <g id="Group_59" data-name="Group 59" transform="translate(-1571 -289)">
    <g transform="matrix(1, 0, 0, 1, 1571, 289)" filter="url(#Rectangle_32)">
      <path id="Rectangle_32-2" data-name="Rectangle 32" d="M0,0H30a0,0,0,0,1,0,0V16a5,5,0,0,1-5,5H5a5,5,0,0,1-5-5V0A0,0,0,0,1,0,0Z" transform="translate(9 18)" fill="#fff"/>
    </g>
    <g transform="matrix(1, 0, 0, 1, 1571, 289)" filter="url(#Rectangle_33)">
      <path id="Rectangle_33-2" data-name="Rectangle 33" d="M5,0H25a5,5,0,0,1,5,5v5a0,0,0,0,1,0,0H0a0,0,0,0,1,0,0V5A5,5,0,0,1,5,0Z" transform="translate(9 9)" fill="#ff7675"/>
    </g>
    <g transform="matrix(1, 0, 0, 1, 1571, 289)" filter="url(#Rectangle_34)">
      <rect id="Rectangle_34-2" data-name="Rectangle 34" width="5" height="9" rx="2.5" transform="translate(14 6)" fill="#b2bec3"/>
    </g>
    <g transform="matrix(1, 0, 0, 1, 1571, 289)" filter="url(#Rectangle_35)">
      <rect id="Rectangle_35-2" data-name="Rectangle 35" width="5" height="9" rx="2.5" transform="translate(29 6)" fill="#b2bec3"/>
    </g>
  </g>
</svg>
